<?xml version="1.0" encoding="utf-8"?>
<!-- Generator: Adobe Illustrator 27.7.0, SVG Export Plug-In . SVG Version: 6.00 Build 0)  -->
<svg version="1.1" id="Layer_1" xmlns="http://www.w3.org/2000/svg" xmlns:xlink="http://www.w3.org/1999/xlink" x="0px" y="0px"
	 viewBox="0 0 2361.4 612" style="enable-background:new 0 0 2361.4 612;" xml:space="preserve">
<style type="text/css">
	.st0{fill:#FFFFFF;}
	.st1{fill:#3D6AFF;}
	.st2{fill:#879ACE;}
	.st3{fill:#D3D3D3;}
	.st4{fill:#26303D;}
	.st5{fill:#455367;}
</style>
<path class="st0" d="M579.4,273l-141.1,86.6L286,274.9L0,441.8l274.8,162.9c9.6,5.7,21.6,5.7,31.2-0.2l273.7-165.7L579.4,273z"/>
<path class="st1" d="M0.1,337.9l141-86.6l129.4,72c14.1,7.8,31.2,7.6,45.1-0.5l264.4-154.4L312.4,10.7C297.9,2.2,280,2.3,265.6,11
	L0,172.5L0.1,337.9z"/>
<path class="st2" d="M0,338l141.1-86.7L0,172.5L0,338z"/>
<path class="st3" d="M579.8,272.8v166l-141.7-78.5L579.8,272.8z"/>
<path class="st0" d="M943.2,211.2l-40.5,107.9h82L943.2,211.2z M969.6,130.2l123.2,309.6h-62.2l-27.8-72.9H885.4L858,439.8h-59.2
	l120.7-309.6H969.6z"/>
<path class="st0" d="M1222,394.7c20.3,0,34.6-7.3,42.8-21.9c8.2-14.9,12.3-29.9,12.3-45.1c0-17.3-3.6-32.8-10.9-46.4
	c-7.3-13.7-22-20.5-44.2-20.5c-6.4,0-13.1,1.2-20,3.6c-6.7,2.1-13.1,5.2-19.1,9.1V382c6.1,3.6,12.4,6.7,19.1,9.1
	C1209,393.5,1215.6,394.7,1222,394.7z M1124.1,218.9h30.1l12.7,16.4c10-7.6,21.7-13.7,35.1-18.2c13.4-4.6,25.2-6.8,35.5-6.8
	c32.5,0,57.4,11.2,74.7,33.7c17.3,22.5,26,50.4,26,83.8s-9,61.3-26.9,83.8c-17.6,22.5-42.2,33.7-73.8,33.7c-7.9,0-16.8-1.4-26.9-4.1
	c-9.7-2.7-19-6.5-27.8-11.4v105.2h-58.7V218.9z"/>
<path class="st0" d="M1486.6,394.7c20.3,0,34.6-7.3,42.8-21.9c8.2-14.9,12.3-29.9,12.3-45.1c0-17.3-3.6-32.8-10.9-46.4
	c-7.3-13.7-22-20.5-44.2-20.5c-6.4,0-13.1,1.2-20,3.6c-6.7,2.1-13.1,5.2-19.1,9.1V382c6.1,3.6,12.4,6.7,19.1,9.1
	C1473.5,393.5,1480.2,394.7,1486.6,394.7z M1388.7,218.9h30.1l12.7,16.4c10-7.6,21.7-13.7,35.1-18.2c13.4-4.6,25.2-6.8,35.5-6.8
	c32.5,0,57.4,11.2,74.7,33.7c17.3,22.5,26,50.4,26,83.8s-9,61.3-26.9,83.8c-17.6,22.5-42.2,33.7-73.8,33.7c-7.9,0-16.8-1.4-26.9-4.1
	c-9.7-2.7-19-6.5-27.8-11.4v105.2h-58.7V218.9z"/>
<path class="st0" d="M1764.4,445.2c-38.2,0-68.5-10.5-90.6-31.4c-21.9-20.9-32.8-49-32.8-84.2s9.9-63.4,29.6-84.7
	c20-21.2,47.2-31.9,81.5-31.9c34.6,0,60,11.5,76,34.6c16.4,22.8,24.6,49.8,24.6,81v18.2h-148.9c2.7,14.6,9.4,26.3,20,35.1
	c10.6,8.5,24.6,12.7,41.9,12.7c10,0,19-1.2,26.9-3.6c8.2-2.7,17.6-6.5,28.2-11.4l17.3,42.8c-10.3,7.9-22.9,13.7-37.8,17.3
	C1785.8,443.4,1773.8,445.2,1764.4,445.2z M1796.7,307.3c-3-14.9-8.5-25.8-16.4-32.8c-7.9-7.3-17.8-10.9-29.6-10.9
	c-12.1,0-22.3,3.8-30.5,11.4c-8.2,7.3-13.5,18.1-15.9,32.3H1796.7z"/>
<path class="st0" d="M1960.1,129.4v310.4h-58.7V129.4L1960.1,129.4z"/>
<path class="st0" d="M2081.1,129.4v310.4h-58.7V129.4H2081.1z"/>
<path class="st0" d="M2242.1,445.2c-34.9,0-62.2-10.5-82-31.4c-19.4-21.2-29.1-49.6-29.1-85.1c0-35.2,10.2-63.3,30.5-84.2
	c20.6-20.9,48.7-31.4,84.2-31.4c36.7,0,65.1,10.9,85.1,32.8c20.3,21.6,30.5,49.9,30.5,85.1s-10.9,63.1-32.8,83.8
	C2306.7,435.1,2277.9,445.2,2242.1,445.2z M2300.4,331c0-20.9-4.7-37.3-14.1-49.2c-9.1-12.1-22.2-18.2-39.2-18.2
	c-17.3,0-30.8,5.3-40.5,15.9c-9.7,10.6-14.6,26.9-14.6,48.7c0,21.9,4.1,38.4,12.3,49.6c8.5,11.2,21.4,16.8,38.7,16.8
	c17,0,30.8-5,41.4-15C2295.1,369.4,2300.4,353.1,2300.4,331z"/>
</svg>
